<svg class="rb-header__logo" xmlns="http://www.w3.org/2000/svg" viewBox="0 0 96.5 144.73">
<style>
#shield, g {
        fill: #212b58;
    }
@media (prefers-color-scheme: dark) {
    #shield, g {
        fill: white;
    }
}</style>
    <g>
        <path d="m39.51,89.77c-2.35-.76-3.48-.77-5.53.52.3.02,1.82-.67,2.26-.52,0,.64,1.31.38,1.42.04.54.14,1.63.28,1.85-.04Z"/>
        <path d="m23.08,41.08l-1.5-.38c.64.56,1.44,1.27,1.5,2.12v-1.75Z"/>
        <path d="m18.16,17.51c-1.78-.61-2.86-.59-4.4.41.24.02,1.45-.53,1.8-.41,0,.51,1.04.3,1.13.03.42.11,1.3.22,1.47-.03Z"/>
        <path d="m44.43,119.46c.56.56,1.24,1.34,1.26,2.11v-2.19l-1.89-.48c.24.2.45.38.63.56Z"/>
        <path d="m62.86,17.51c-1.78-.61-2.86-.59-4.4.41.24.02,1.45-.53,1.8-.41,0,.51,1.04.3,1.13.03.43.11,1.3.22,1.47-.03Z"/>
    <path d="m66.78,41.15c.44.45.99,1.06,1,1.68v-1.75l-1.5-.38c.19.16.36.3.5.44Z"/>
    </g>
    
    <path id="shield" d="m94.42,2.88S76.63,0,48.16,0,1.89,2.88,1.89,2.88C-2.2,20.84-4.43,113.98,48.16,144.72h0,0s0,0,0,0h0s0,0,0,0h0C101.09,113.75,98.38,19.95,94.42,2.88Z" mask="url(#liver)"/>
    <defs>
    <path id="bird" d="m19.07,39.63c-14.16-7.13,6.39-21.56-6.12-19.47-.09-.38.29-1.81-.59-1.48.58,1.11-.03,2.73-.32,3.78,1.19.64.06,2.13-.27,2.85-.04-.07-.25-.57-.48-.65-.44,1.11-1.21.67-1.98,1.08.09-.68-.57-1.12.1-2.01-.37-.07-.71-.3-.79-.48,1.29-1.06.76-1.89,2.75-1.06.28-.77.42-1.54.49-2.17-.33-.16-.59-.44-.61-.99,0,0-2.64-.71-3.59.79,0,0-2.27-3.87,6.62-3.08,2.19-2.06,9.12.76,10.34-1.74,0,0-1.96,3.71-3.73,5.06-1.66,1.26-5.57,7.8-.85,8.38-3.47-8.36,4.13,3.71,7.45-5.35-.54-3.32,12.37-.81,17.54-5.4,0,0-.49,3.34-1.97,7.11l-3.44-.52,3.09,1.39c-.73,1.71-1.66,3.46-2.85,5l-2.97-1.61,2.36,2.35c-1.47,1.69-3.28,3.04-5.51,3.66l-2.21-4.15,1.12,4.38c-1.11.19-2.39.18-3.57-.02,2.47,2.7,4.57,5.91,4.68,9.1,0,0-1.58-3.79-4.8-4.26l.69,1.81s-3.25-1.79-4.95-1.31c-1.44,2.97-.41,6.79-.41,6.79,2.27.47,4.4,1.69,4.4,1.69-4.53-.44-8.31-1.13-11.21.96.19-2.37,5.45-3.44,5.45-3.44.37-3.42-2.51-5.97-3.89-6.98Z"/>

    <mask id="liver">
        <path d="m94.42,2.88S76.63,0,48.16,0,1.89,2.88,1.89,2.88C-2.2,20.84-4.43,113.98,48.16,144.72h0,0s0,0,0,0h0s0,0,0,0h0C101.09,113.75,98.38,19.95,94.42,2.88Z" fill="white"/>
        <path d="m73.85,76.37l-1.58-.76.6,1.57s-.41-.27-1.14-.67l.3.82c-1.89,1.86-10.53-9.53-23.62,2.68-1.27,1.21-1.44,1.63-3.02,0-10.46-10.73-22.69-2.06-22.69-2.06l-.65-.43.37-.93c-.71.38-1.11.64-1.11.64l.77-1.89c-1.08.48-1.72.85-1.72.85l.64-1.43c-.67.27-1.05.46-1.05.46l7-17.38c9.58-8.47,20.52-.45,20.52-.45,0,0,11.79-8.4,20.08.35l6.64,17.5-.97-.43.65,1.56Z"/>
        <use href="#bird"></use>
        <use href="#bird" transform="translate(45 0)"></use>
        <use href="#bird" transform="translate(17 67.5) scale(1.2575)"></use>
    </mask>
    </defs>
    <!-- <path d="m70.82,98.92l-4.32-.66,3.88,1.75c-.92,2.14-2.09,4.34-3.58,6.28l-3.73-2.03,2.97,2.96c-1.84,2.12-4.12,3.82-6.92,4.6l-2.78-5.21,1.41,5.51c-1.39.23-3,.23-4.48-.03,3.1,3.39,5.75,7.42,5.87,11.43,0,0-1.98-4.76-6.02-5.35l.87,2.28s-4.08-2.24-6.21-1.65c-1.8,3.73-.52,8.52-.52,8.52,2.85.59,5.53,2.12,5.53,2.12-5.69-.55-10.44-1.41-14.09,1.21.24-2.98,6.85-4.32,6.85-4.32.46-4.3-3.15-7.5-4.88-8.77-17.86-9.26,8.15-27.06-7.68-24.46-.11-.47.37-2.27-.74-1.86.73,1.4-.04,3.43-.4,4.74,1.49.8.07,2.68-.34,3.57-.05-.09-.32-.71-.6-.82-.55,1.39-1.52.85-2.48,1.35.12-.85-.72-1.41.12-2.52-.46-.09-.89-.38-.98-.6,1.66-1.34.86-2.38,3.45-1.33.35-.97.53-1.94.62-2.73-.42-.2-.74-.56-.77-1.24,0,0-3.32-.89-4.51.99,0,0-2.85-4.86,8.32-3.87,2.89-2.66,11.13,1.05,12.99-2.18,0,0-2.46,4.67-4.68,6.36-2.08,1.59-6.99,9.79-1.06,10.53-4.47-10.56,5.25,4.66,9.36-6.72-.94-4.08,15.61-1.07,22.03-6.78,0,0-.62,4.19-2.48,8.93Z"/>
    <path d="m87.78,24.8l-3.44-.52,3.09,1.39c-.73,1.71-1.66,3.46-2.85,5l-2.97-1.61,2.36,2.35c-1.47,1.69-3.28,3.04-5.51,3.66l-2.21-4.15,1.12,4.38c-1.11.19-2.39.18-3.57-.02,2.47,2.7,4.58,5.91,4.68,9.1,0,0-1.57-3.79-4.8-4.26l.69,1.81s-3.25-1.79-4.94-1.31c-1.44,2.97-.41,6.79-.41,6.79,2.27.47,4.4,1.69,4.4,1.69-4.53-.44-8.31-1.13-11.22.96.19-2.37,5.45-3.44,5.45-3.44.37-3.42-2.51-5.97-3.89-6.98-14.15-7.13,6.39-21.56-6.11-19.47-.09-.38.29-1.81-.59-1.48.58,1.11-.03,2.73-.32,3.78,1.19.64.06,2.13-.27,2.85-.04-.07-.25-.57-.48-.65-.44,1.11-1.21.67-1.98,1.08.1-.68-.57-1.12.1-2.01-.36-.07-.71-.3-.78-.48,1.28-1.06.76-1.89,2.75-1.06.28-.77.42-1.54.49-2.17-.33-.16-.59-.44-.61-.99,0,0-2.64-.71-3.59.79,0,0-2.27-3.87,6.62-3.08,2.19-2.06,9.12.76,10.35-1.74,0,0-1.96,3.71-3.73,5.06-1.66,1.26-5.57,7.8-.85,8.38-3.47-8.36,4.13,3.71,7.45-5.35-.54-3.32,12.37-.81,17.54-5.4,0,0-.49,3.34-1.97,7.11Z"/> -->
    <g>
    <path d="m29.73,62.65l.34-.06c.38-.08.59-.34.81-1.04l.28-.04c-.08.39-.15.77-.22,1.16-.06.38-.11.74-.17,1.12l-.28.04c.05-.54-.04-.93-.53-.84l-.3.05-.5,1.54c-.17.63.02.65.79.49l-.07.33c-.5.11-1.08.23-1.68.35-.52.1-.82.18-1.65.31l.13-.29c.84-.17.91-.45,1.12-1.09l.89-2.72c.24-.77.2-1.07-.46-1.03l.08-.27c.53-.03,1.27-.12,1.95-.25.85-.16,1.64-.38,2.47-.63l-.13,1.43-.39.08c0-.99-.33-.82-1.28-.62-.62.13-.74.16-.9.84l-.31,1.16Z"/>
    <path d="m34.01,61.11c.14-.68.22-.95-.46-.87l.08-.35c.39-.07.71-.08,1.19-.14.49-.07.81-.13,1.3-.17l-.04.35c-.67.08-.84.33-.94.97l-.68,2.71c-.15.88-.2,1.09.51,1.09l-.05.35c-.43,0-.87,0-1.36,0-.41,0-1.04.08-1.46.12l.11-.34c.74-.08.86-.37,1.05-1.17l.76-2.56Z"/>
    <path d="m37.22,63.67c-.1.22-.17.33-.31.66-.2.44.27.5.54.55l-.05.34c-.3-.03-.61-.08-.91-.1-.28-.02-.56-.02-.84-.03l.05-.35c.63,0,.95-.75,1.21-1.32.77-1.66,1.78-3.89,1.78-3.89l.6.07s.73,3.58.84,4.36c.1.68.14.8.21,1.12.05.21.33.44.5.51l-.05.35c-.44-.14-.7-.22-1.16-.33-.36-.08-.79-.16-1.25-.22l.06-.35c.27.04.7.02.68-.39,0-.15-.06-.57-.08-.71l-.08-.35s-.41-.09-.84-.14c-.42-.05-.75-.06-.75-.06l-.13.28Zm.92-.7c.39.04.73.1.73.1l-.41-2.06-.93,1.93s.28.01.6.04Z"/>
    <path d="m44.77,63.41l-.3-.12c.02-.78.03-1.47-.42-1.7-.43-.21-.52.02-.58.73l-.31,2.96c-.09.81-.01,1.14.57,1.48l-.04.35c-.46-.24-.86-.43-1.22-.58-.39-.16-.81-.29-1.27-.45l.07-.33c.71.19.74-.04.83-.84l.34-2.95c.07-.65.16-.96-.32-1.13-.58-.21-.65.38-.83,1.12l-.31-.1.22-1.74s1.12.24,2.04.64c.96.4,1.7.94,1.7.94l-.14,1.72Z"/>
    <path d="m51.67,67.08c.64-.38.63-.68.59-1.43l-.17-3.02c-.04-.75.02-1.15-.71-.88l-.02-.36c.45-.23.72-.35,1.06-.48.45-.17.93-.32,1.43-.45l.02.38c-.67.21-.61.6-.57,1.35l.15,2.46c.04.92.15,1.43.98,1.15,1.05-.34,1.46-.77,1.6-1.88l.3-.04.04,1.86c-1.43.31-2.96.88-3.39,1.04-.39.18-.88.4-1.29.63l-.02-.34Z"/>
    <path d="m55.84,60.3c.6-.05,1.01-.05,1.38-.06.43-.03.83-.02,1.38-.02l.03.33c-.67.01-.66.46-.59,1.21l.15,1.44c.11,1.16.51,1.85,1.55,1.8,1.12-.04,1.09-.63.97-1.74l-.16-1.24c-.04-.33-.1-.75-.26-1.02-.14-.25-.34-.37-.59-.4l-.04-.32c.32.02.59.07.89.11.28.04.45.03.8.07l.03.33c-.22,0-.41.13-.48.41-.1.33,0,.68.03,1.04l.11.82c.19,1.65.36,2.49-1.56,2.56-1.24.05-2.49-.44-2.67-2.34l-.16-1.51c-.08-.76-.08-1.14-.78-1.14l-.02-.33Z"/>
    <path d="m66.49,65.71c.28.37.51.66.87.72l.05.32c-.53-.08-.78-.15-1.27-.22-.38-.07-.84-.11-1.26-.19l-.04-.32c.06,0,.36.02.43-.02.07-.03.11-.1.11-.21,0-.17-.29-.56-.39-.71l-.72-1.1-.38.59c-.13.19-.34.55-.32.81.03.34.29.41.54.47l.03.33c-.39-.07-.64-.13-.96-.2-.29-.04-.56-.09-.84-.13l-.02-.34c.39.05.64-.28.85-.61l.87-1.32-1.01-1.53c-.1-.22-.25-.4-.38-.58-.18-.25-.32-.27-.5-.39v-.33c.33.1.72.2,1.12.28.39.07.77.11,1.11.16l.03.36c-.19-.01-.46-.07-.44.21.02.19.05.26.19.47l.46.69.33-.46c.12-.16.19-.26.29-.43.14-.22-.2-.4-.51-.44l-.03-.35c.29.05.52.07.78.09.27.01.43,0,.68,0l.11.34c-.38,0-.53.25-.77.62l-.66.98,1.66,2.44Z"/>
    </g>
</svg>